<svg class="svg logo-svg" xmlns="http://www.w3.org/2000/svg" viewBox="0 0 260.7 100.5">
    <defs>
        <style>
            .cls-1{fill:#ec6c2f}.cls-2{fill:#fff}
        </style>
    </defs>
    <g id="Logo" transform="translate(-362.6 -92.3)">
        <path id="Imagotipo_1_" d="M401.6 192.8c-.2-.2-.5-.4-.7-.6-3.1-2.2-6.2-4.3-9.4-6.5-1.9-1.3-3.8-2.6-5.8-3.9a.675.675 0 0 1-.4-.6v-14.6c5.5 3.7 10.9 7.5 16.3 11.2 1.1-.8 2.3-1.6 3.5-2.4 1.5-1 3-2.1 4.5-3.1 6.2-4.2 12.3-8.4 18.5-12.6a.55.55 0 0 0 .3-.5v-15.4h-4.8a.462.462 0 0 0-.5.3 22.215 22.215 0 0 1-11 13.2 21.807 21.807 0 0 1-7.5 2.3 22.559 22.559 0 0 1-12.3-1.9 21.6 21.6 0 0 1-12.1-13.8.1.1 0 0 0-.1-.1H375v30.5a.367.367 0 0 0-.3-.1c-3.9-2.7-7.9-5.4-11.8-8.1a.6.6 0 0 1-.3-.6V92.3h33.9v12.2H375v26.6c0 .4.1.5.5.5h4.4c.6-1.4 1.1-2.8 1.7-4.1a21.3 21.3 0 0 1 8.9-9.4 23.18 23.18 0 0 1 8.9-2.8 23.574 23.574 0 0 1 10.2 1.3 21.82 21.82 0 0 1 13.6 14.6c.1.4.3.6.7.5h4.4v-27.1h-21.5V92.4h33.9v73.3a.67.67 0 0 1-.4.7c-3.7 2.5-7.4 5.1-11.2 7.6l-18.9 12.9c-2.7 1.9-5.5 3.7-8.3 5.6a1.381 1.381 0 0 1-.4.3zm.3-45.2a10 10 0 1 0 0-20 10 10 0 1 0 0 20z" class="cls-1"/>
        <g id="FutbolConnect_2_">
            <g id="Connect_1_">
                <path id="M_1_" d="M622.4 141.3l-.9 3h-.8l-.9-3 .1 3h-.8v-3.7h1.3l.8 2.7.8-2.7h1.3v3.7h-.8z" class="cls-2"/>
                <path id="T_1_" d="M616.4 141.3h-1.3v-.7h3.4v.7h-1.3v3h-.9v-3z" class="cls-2"/>
                <path id="t_2_" d="M600 145.2h-3.9v-5.3h3.9v-7h6.7v7h6.2v5.3h-6.1v7.3a5.851 5.851 0 0 0 .2 1.3 2.248 2.248 0 0 0 2.1 1.7 6.561 6.561 0 0 0 3.6-.8c.1.4.3.9.4 1.3.4 1.2.7 2.5 1.1 3.7.1.2.1.3-.2.4a11.509 11.509 0 0 1-8.7 1 6.875 6.875 0 0 1-5-5.7 16.356 16.356 0 0 1-.2-2.2v-7.5a.749.749 0 0 1-.1-.5z" class="cls-2"/>
                <path id="c_1_" d="M595.9 147.2l-6.3 1.5c-.1-.3-.2-.7-.3-1a4.55 4.55 0 0 0-7.1-1.8 5.8 5.8 0 0 0-1.4 1.7 5.111 5.111 0 0 0-.4 4.5c1 3.2 5.4 4.5 7.8 2.3a5.71 5.71 0 0 0 1.3-2.1 4.176 4.176 0 0 0 .2-.6c2 .4 4.1.9 6.2 1.3a7.363 7.363 0 0 1-.4 1.4 10.142 10.142 0 0 1-7.7 6.6 12.159 12.159 0 0 1-10.4-2.3 10.041 10.041 0 0 1-3.8-7.5 10.732 10.732 0 0 1 2.7-8.4 10.242 10.242 0 0 1 6.5-3.5 11.378 11.378 0 0 1 9.1 1.9 10.171 10.171 0 0 1 4 5.7.188.188 0 0 0 0 .3z" class="cls-2"/>
                <path id="e_1_" d="M571.9 154.8a9.96 9.96 0 0 1-4.6 5.3 12.06 12.06 0 0 1-6.7 1.3 10.842 10.842 0 0 1-10.4-11.8 10.8 10.8 0 0 1 3.3-7.5 11.243 11.243 0 0 1 9.1-3.1 9.785 9.785 0 0 1 6.6 3.1 11.03 11.03 0 0 1 3 6.1c.2 1.2.2 2.4.3 3.7h-15.6a4.513 4.513 0 0 0 4.4 4 5.011 5.011 0 0 0 4.5-2.2c0-.1.2-.1.3-.1a.6.6 0 0 1 .4.1c1.8.4 3.6.8 5.4 1.1zm-14.8-7h8.6a4.077 4.077 0 0 0-4.4-3.2c-2 .1-4 1.6-4.2 3.2z" class="cls-2"/>
                <path id="n_2_" d="M527.6 160.8v-21.1h6.7v1.9a1.381 1.381 0 0 0 .4-.3 9.165 9.165 0 0 1 7.6-2.1 7.771 7.771 0 0 1 6.6 7.3 10.286 10.286 0 0 1 .1 1.7v12.5h-6.8v-11.4a4.845 4.845 0 0 0-.7-2.6 3.785 3.785 0 0 0-6.3.1 7.027 7.027 0 0 0-1 4v9.4c0 .4-.1.5-.5.5h-5.8c.1.1-.1.1-.3.1z" class="cls-2"/>
                <path id="n_1_" d="M504.2 160.8v-21h6.8v1.9c.2-.1.2-.2.3-.2a8.8 8.8 0 0 1 7.1-2.3 8.02 8.02 0 0 1 5.2 2.5 7.426 7.426 0 0 1 2 4.7 14.772 14.772 0 0 1 .1 2.1v12.4h-6.8v-11.5a4.16 4.16 0 0 0-1.5-3.4 3.929 3.929 0 0 0-5.9 1.7 8.342 8.342 0 0 0-.6 3.5v9.2c0 .4-.1.5-.5.5h-5.8c-.1-.1-.2-.1-.4-.1z" class="cls-2"/>
                <path id="o_2_" d="M502.7 151.5c.1 4.4-4 8.8-9.5 9.7a12.836 12.836 0 0 1-7-.8 10.966 10.966 0 0 1-.9-19.9 12.576 12.576 0 0 1 14 1.7c2.3 2.2 3.4 4.9 3.4 9.3zm-6.4-1.2a5.852 5.852 0 0 0-.2-1.3 5.023 5.023 0 0 0-8-3.1 5.37 5.37 0 0 0-2 5.3 5.125 5.125 0 0 0 10.2-.9z" class="cls-2"/>
                <path id="C_1_2" d="M478.6 147.2l-6.3 1.5a6.9 6.9 0 0 0-.3-.8 4.332 4.332 0 0 0-4.5-2.9 4.963 4.963 0 0 0-4.7 4 5.457 5.457 0 0 0 2.2 5.8 4.772 4.772 0 0 0 7.2-2.6c0-.1.1-.2.1-.4 1 .2 2.1.4 3.1.7 1 .2 2 .4 3.1.7a12.239 12.239 0 0 1-.9 2.7 10.178 10.178 0 0 1-8 5.4 12.33 12.33 0 0 1-8.6-1.8 10.483 10.483 0 0 1-4.7-8.2 10.878 10.878 0 0 1 2.2-7.8 10.576 10.576 0 0 1 6.9-4.1 11.861 11.861 0 0 1 8.8 1.6 9.409 9.409 0 0 1 4.4 6.2z" class="cls-2" data-name="C_1_"/>
            </g>
            <g id="Futbol_1_">
                <path id="l_1_" d="M564.3 104.2h6.7v28.4h-6.7z" class="cls-2"/>
                <path id="o_1_" d="M551.3 133.2a13.08 13.08 0 0 1-8.4-2.8 10.5 10.5 0 0 1-3.8-9.5 9.7 9.7 0 0 1 3.2-6.7 12.235 12.235 0 0 1 7.1-3.2 12.433 12.433 0 0 1 7.8 1.6 10.1 10.1 0 0 1 4.2 4.7 10.344 10.344 0 0 1 .4 8.6 10.729 10.729 0 0 1-7.8 6.8 9.1 9.1 0 0 1-2.7.5zm4.5-11.1c0-.4-.1-.8-.1-1.1a5.036 5.036 0 0 0-8.1-3.2 5.5 5.5 0 0 0-2 5.5 5.127 5.127 0 0 0 6.4 4.1 5.4 5.4 0 0 0 3.8-5.3z" class="cls-2"/>
                <path id="b_1_" d="M521.3 131.1v1.6h-6.7v-28.4h6.7v8.9a1.381 1.381 0 0 0 .4-.3 10.245 10.245 0 0 1 7.2-1.9c4.9.4 8.6 4.3 9.3 9.3a11.884 11.884 0 0 1-1.9 8.6 10.386 10.386 0 0 1-14.7 2.2zm10.3-9v-.5a5.033 5.033 0 0 0-8.2-3.8c-3.1 2.3-2.6 7.7.9 9.2a4.881 4.881 0 0 0 4.4.1c2.1-1 2.8-2.8 2.9-5z" class="cls-2"/>
                <path id="t_1_2" d="M505.9 104.3v7.3h6.1v5.4h-6.1v7.5a2.586 2.586 0 0 0 1.2 2.5 3.363 3.363 0 0 0 2.6.3l2.1-.6c.1.3.2.7.3 1.1.4 1.3.7 2.5 1.1 3.8.1.2.1.4-.2.5a10.945 10.945 0 0 1-9.8.6 6.49 6.49 0 0 1-4-5.4 17.851 17.851 0 0 1-.2-2.3v-7.8h-3.8v-5.3h3.8v-7.3a53.107 53.107 0 0 1 6.9-.3z" class="cls-2" data-name="t_1_"/>
                <path id="u_1_" d="M472.6 111.6h6.7V123a6.448 6.448 0 0 0 .3 2c1.1 2.8 4.4 2.6 6 1.2a5.008 5.008 0 0 0 1.6-3.6c.1-3.1.1-6.1.1-9.2v-1.8h6.7v21h-6.7v-1.8l-1.8 1.2c-2.9 1.8-7.6 1.8-10.2-.7a8.414 8.414 0 0 1-2.6-5 12.749 12.749 0 0 1-.1-2v-12.7z" class="cls-2"/>
                <path id="F_1_" d="M471.5 111.6v5.3h-5.9v15.2c0 .4-.1.6-.5.5h-6.2v-15.7h-3v-5.3h3v-2.2a7.426 7.426 0 0 1 6.4-7.3 11.818 11.818 0 0 1 5.9.5c.1 0 .2.1.4.2-.5 1.7-1 3.5-1.4 5.2-3.7-1-5 .8-4.6 3.6z" class="cls-2"/>
            </g>
        </g>
    </g>
</svg>
