<svg xmlns="http://www.w3.org/2000/svg" viewBox="0 0 21.024 21.425">
  <defs>
    <style>
      .cls-1 {
        fill: #fff;
      }
    </style>
  </defs>
  <g id="Group_1165" data-name="Group 1165" transform="translate(-183.876 -420.075)">
    <path id="Path_998" data-name="Path 998" class="cls-1" d="M185.9,432.7a2.075,2.075,0,0,0-.6,1c-.5,2.3-1,4.5-1.4,6.8-.1.7.1,1,.8,1h12.8a.808.808,0,0,0,.9-.7.713.713,0,0,0-.8-.7h-7.7V440c.5-.1,1-.3,1.4-.4a2.622,2.622,0,0,0,.9-.5l11.9-11.9a2.182,2.182,0,0,0,.6-2.6,7.365,7.365,0,0,0-4.4-4.4,2.785,2.785,0,0,0-1.2-.1C197.7,420.6,188.4,430.2,185.9,432.7Zm-.5,7.2c.4-1.7.7-3.4,1.1-5,1.2,1.2,2.4,2.4,3.6,3.7C188.6,439,187,439.4,185.4,439.9ZM198.5,422a1.524,1.524,0,0,1,1-.6,2.92,2.92,0,0,1,.9.2,7.524,7.524,0,0,1,2.8,2.8,1.313,1.313,0,0,1-.3,1.9c-.2.2-.3.2-.4,0l-4-4Q198.2,422.3,198.5,422Zm-1.5,1.5c.2-.2.3-.3.5,0l4,4,.2.2c-.1.1-.2.2-.2.3-3.2,3.2-6.4,6.4-9.6,9.7-.2.2-.4.3-.6,0l-3.8-3.8a.375.375,0,0,1,0-.6C190.6,429.9,193.8,426.7,197,423.5Z"/>
    <path id="Path_999" data-name="Path 999" class="cls-1" d="M198.7,426.9a.55.55,0,0,1-.3.5l-7,7c-.3.3-.8.4-1,.1a.613.613,0,0,1,.1-1c2.3-2.4,4.7-4.7,7-7.1a.778.778,0,0,1,.8-.2A1.012,1.012,0,0,1,198.7,426.9Z"/>
  </g>
</svg>
