<svg xmlns="http://www.w3.org/2000/svg" viewBox="0 0 25.994 24.4">
  <defs>
    <style>
      .cls-1 {
        fill: none;
        stroke: #fff;
        stroke-miterlimit: 10;
      }
    </style>
  </defs>
  <g id="Group_1167" data-name="Group 1167" transform="translate(-283.401 -418.6)">
    <g id="Group_1166" data-name="Group 1166">
      <path id="Path_1000" data-name="Path 1000" class="cls-1" d="M299.8,427.1v.1a2.768,2.768,0,0,0,.9.1,4.1,4.1,0,0,0,0-8.2,4.217,4.217,0,0,0-3.9,2.8A5.968,5.968,0,0,1,299.8,427.1Z"/>
      <path id="Path_1001" data-name="Path 1001" class="cls-1" d="M299.6,428.6a5.907,5.907,0,0,1-3.1,3.8h1.8a5.283,5.283,0,0,1,5.1,3.7h5.4l-.8-4.6a3.63,3.63,0,0,0-3.5-3h-4.9Z"/>
      <path id="Path_1002" data-name="Path 1002" class="cls-1" d="M292.2,431.7c.2.1.4.1.5.2a1.268,1.268,0,0,1,.6.1h.5a4.741,4.741,0,0,0,4.6-3.4c.1-.2.1-.4.2-.6v-.1a.9.9,0,0,1,.1-.5v-.7a5.051,5.051,0,0,0-2.1-3.7c-.2-.1-.3-.2-.5-.3s-.3-.2-.5-.3a4.671,4.671,0,0,0-1.7-.3A4.908,4.908,0,0,0,289,427,4.783,4.783,0,0,0,292.2,431.7Z"/>
      <path id="Path_1003" data-name="Path 1003" class="cls-1" d="M302.5,437.1c0-.1-.1-.2-.1-.4-.1-.2-.1-.4-.2-.6a4.4,4.4,0,0,0-3.9-2.6h-9.1A4.209,4.209,0,0,0,285,437l-1,5.5h19.4l-1-5.3Z"/>
    </g>
  </g>
</svg>
